<?xml version="1.0" encoding="UTF-8" standalone="no"?>
<!-- Created with Inkscape (http://www.inkscape.org/) -->

<svg
   xmlns:dc="http://purl.org/dc/elements/1.1/"
   xmlns:cc="http://creativecommons.org/ns#"
   xmlns:rdf="http://www.w3.org/1999/02/22-rdf-syntax-ns#"
   xmlns:svg="http://www.w3.org/2000/svg"
   xmlns="http://www.w3.org/2000/svg"
   xmlns:sodipodi="http://sodipodi.sourceforge.net/DTD/sodipodi-0.dtd"
   xmlns:inkscape="http://www.inkscape.org/namespaces/inkscape"
   width="395"
   height="395"
   viewBox="0 0 395 395.00001"
   id="svg2"
   version="1.1"
   inkscape:version="0.91 r13725"
   sodipodi:docname="board.svg"
   inkscape:export-filename="/home/abraham/Repositorios/supercat/src/board.png"
   inkscape:export-xdpi="90"
   inkscape:export-ydpi="90">
  <defs
     id="defs4" />
  <sodipodi:namedview
     id="base"
     pagecolor="#ffffff"
     bordercolor="#666666"
     borderopacity="1.0"
     inkscape:pageopacity="0.0"
     inkscape:pageshadow="2"
     inkscape:zoom="1"
     inkscape:cx="188.87961"
     inkscape:cy="179.17337"
     inkscape:document-units="px"
     inkscape:current-layer="layer1"
     showgrid="false"
     units="px"
     showguides="false"
     inkscape:window-width="1920"
     inkscape:window-height="1049"
     inkscape:window-x="0"
     inkscape:window-y="31"
     inkscape:window-maximized="1" />
  <metadata
     id="metadata7">
    <rdf:RDF>
      <cc:Work
         rdf:about="">
        <dc:format>image/svg+xml</dc:format>
        <dc:type
           rdf:resource="http://purl.org/dc/dcmitype/StillImage" />
        <dc:title></dc:title>
      </cc:Work>
    </rdf:RDF>
  </metadata>
  <g
     inkscape:label="Capa 1"
     inkscape:groupmode="layer"
     id="layer1"
     transform="translate(0,-657.36216)">
    <path
       style="fill:#4d4d4d;fill-opacity:1;stroke:none;stroke-width:6;stroke-miterlimit:4;stroke-dasharray:none;stroke-opacity:1"
       d="m 40,937.36212 0,30 -30,0 0,5 30,0 0,35.00008 -30,0 0,5 30,0 0,30 5,0 0,-30 35,0 0,30 5,0 0,-30 30,0 0,-5 -30,0 0,-35.00008 30,0 0,-5 -30,0 0,-30 -5,0 0,30 -35,0 0,-30 -5,0 z m 5,35 35,0 0,35.00008 -35,0 0,-35.00008 z"
       id="rect4136-5"
       inkscape:connector-curvature="0" />
    <rect
       style="fill:#4d4d4d;fill-opacity:1;stroke:none;stroke-width:6;stroke-miterlimit:4;stroke-dasharray:none;stroke-opacity:1"
       id="rect4193"
       width="375"
       height="10"
       x="10"
       y="917.36212" />
    <rect
       style="fill:#4d4d4d;fill-opacity:1;stroke:none;stroke-width:6;stroke-miterlimit:4;stroke-dasharray:none;stroke-opacity:1"
       id="rect4193-2"
       width="375"
       height="10"
       x="10"
       y="782.36212" />
    <path
       inkscape:connector-curvature="0"
       style="fill:#4d4d4d;fill-opacity:1;stroke:none;stroke-width:6;stroke-miterlimit:4;stroke-dasharray:none;stroke-opacity:1"
       d="m 40,802.36212 0,30 -30,0 0,5 30,0 0,35 -30,0 0,5 30,0 0,30 5,0 0,-30 35,0 0,30 5,0 0,-30 30,0 0,-5 -30,0 0,-35 30,0 0,-5 -30,0 0,-30 -5,0 0,30 -35,0 0,-30 -5,0 z m 5,35 35,0 0,35 -35,0 0,-35 z"
       id="rect4136-5-3" />
    <path
       inkscape:connector-curvature="0"
       style="fill:#4d4d4d;fill-opacity:1;stroke:none;stroke-width:6;stroke-miterlimit:4;stroke-dasharray:none;stroke-opacity:1"
       d="m 40,667.36212 0,30 -30,0 0,5 30,0 0,35 -30,0 0,5 30,0 0,30 5,0 0,-30 35,0 0,30 5,0 0,-30 30,0 0,-5 -30,0 0,-35 30,0 0,-5 -30,0 0,-30 -5,0 0,30 -35,0 0,-30 -5,0 z m 5,35 35,0 0,35 -35,0 0,-35 z"
       id="rect4136-5-3-0" />
    <rect
       style="fill:#4d4d4d;fill-opacity:1;stroke:none;stroke-width:6;stroke-miterlimit:4;stroke-dasharray:none;stroke-opacity:1"
       id="rect4193-9"
       width="375"
       height="10"
       x="667.36212"
       y="-135.00003"
       transform="matrix(0,1,-1,0,0,0)" />
    <rect
       style="fill:#4d4d4d;fill-opacity:1;stroke:none;stroke-width:6;stroke-miterlimit:4;stroke-dasharray:none;stroke-opacity:1"
       id="rect4193-2-0"
       width="375"
       height="10"
       x="667.36212"
       y="-270.00003"
       transform="matrix(0,1,-1,0,0,0)" />
    <path
       style="fill:#4d4d4d;fill-opacity:1;stroke:none;stroke-width:6;stroke-miterlimit:4;stroke-dasharray:none;stroke-opacity:1"
       d="m 175,937.36202 0,30 -30,0 0,5 30,0 0,35.00018 -30,0 0,5 30,0 0,30 5,0 0,-30 35,0 0,30 5,0 0,-30 30,0 0,-5 -30,0 0,-35.00018 30,0 0,-5 -30,0 0,-30 -5,0 0,30 -35,0 0,-30 -5,0 z m 5,35 35,0 0,35.00018 -35,0 0,-35.00018 z"
       id="rect4136-5-0"
       inkscape:connector-curvature="0" />
    <path
       inkscape:connector-curvature="0"
       style="fill:#4d4d4d;fill-opacity:1;stroke:none;stroke-width:6;stroke-miterlimit:4;stroke-dasharray:none;stroke-opacity:1"
       d="m 175,802.36212 0,30 -30,0 0,5 30,0 0,35 -30,0 0,5 30,0 0,30 5,0 0,-30 35,0 0,30 5,0 0,-30 30,0 0,-5 -30,0 0,-35 30,0 0,-5 -30,0 0,-30 -5,0 0,30 -35,0 0,-30 -5,0 z m 5,35 35,0 0,35 -35,0 0,-35 z"
       id="rect4136-5-3-07" />
    <path
       inkscape:connector-curvature="0"
       style="fill:#4d4d4d;fill-opacity:1;stroke:none;stroke-width:6;stroke-miterlimit:4;stroke-dasharray:none;stroke-opacity:1"
       d="m 175,667.36216 0,30 -30,0 0,5 30,0 0,35 -30,0 0,5 30,0 0,29.99996 5,0 0,-29.99996 35,0 0,29.99996 5,0 0,-29.99996 30,0 0,-5 -30,0 0,-35 30,0 0,-5 -30,0 0,-30 -5,0 0,30 -35,0 0,-30 -5,0 z m 5,35 35,0 0,35 -35,0 0,-35 z"
       id="rect4136-5-3-0-2" />
    <path
       style="fill:#4d4d4d;fill-opacity:1;stroke:none;stroke-width:6;stroke-miterlimit:4;stroke-dasharray:none;stroke-opacity:1"
       d="m 310,937.36206 0,30 -30,0 0,5 30,0 0,35.00014 -30,0 0,5 30,0 0,30 5,0 0,-30 35,0 0,30 5,0 0,-30 30,0 0,-5 -30,0 0,-35.00014 30,0 0,-5 -30,0 0,-30 -5,0 0,30 -35,0 0,-30 -5,0 z m 5,35 35,0 0,35.00014 -35,0 0,-35.00014 z"
       id="rect4136-5-4"
       inkscape:connector-curvature="0" />
    <path
       inkscape:connector-curvature="0"
       style="fill:#4d4d4d;fill-opacity:1;stroke:none;stroke-width:6;stroke-miterlimit:4;stroke-dasharray:none;stroke-opacity:1"
       d="m 310,802.36212 0,30 -30,0 0,5 30,0 0,35 -30,0 0,5 30,0 0,30 5,0 0,-30 35,0 0,30 5,0 0,-30 30,0 0,-5 -30,0 0,-35 30,0 0,-5 -30,0 0,-30 -5,0 0,30 -35,0 0,-30 -5,0 z m 5,35 35,0 0,35 -35,0 0,-35 z"
       id="rect4136-5-3-5" />
    <path
       inkscape:connector-curvature="0"
       style="fill:#4d4d4d;fill-opacity:1;stroke:none;stroke-width:6;stroke-miterlimit:4;stroke-dasharray:none;stroke-opacity:1"
       d="m 310,667.36212 0,30 -30,0 0,5 30,0 0,35 -30,0 0,5 30,0 0,30 5,0 0,-30 35,0 0,30 5,0 0,-30 30,0 0,-5 -30,0 0,-35 30,0 0,-5 -30,0 0,-30 -5,0 0,30 -35,0 0,-30 -5,0 z m 5,35 35,0 0,35 -35,0 0,-35 z"
       id="rect4136-5-3-0-0" />
  </g>
</svg>
